<svg width="95" height="21" viewBox="0 0 95 21" fill="none" xmlns="http://www.w3.org/2000/svg">
<path d="M8.18361 21.1173C6.31651 21.1845 4.4685 20.7209 2.85257 19.7799C1.4771 18.9304 0.461601 17.6023 0 16.0491L4.79326 13.257C5.02776 14.005 5.49987 14.6553 6.13742 15.1087C6.77498 15.5621 7.54292 15.7935 8.3239 15.7676C9.60989 15.7676 10.2412 15.4391 10.2412 14.7586C10.2416 14.577 10.1931 14.3987 10.1009 14.2424C9.95984 14.0642 9.77431 13.9266 9.56313 13.8436L8.88506 13.5855L7.85626 13.2804L6.75732 12.9754C2.85257 11.7318 0.888506 9.69049 0.888506 6.64021C0.870187 5.79464 1.03651 4.95529 1.37581 4.18109C1.71511 3.40688 2.21916 2.71658 2.85257 2.15864C4.27262 0.936944 6.10492 0.307245 7.97317 0.398868C9.54022 0.376785 11.0838 0.782284 12.4391 1.57205C13.7555 2.35116 14.7757 3.54831 15.3384 4.97429L10.6621 7.71954C10.508 7.12599 10.1635 6.59987 9.68172 6.22243C9.19994 5.84499 8.60773 5.63724 7.99655 5.63127C7.64482 5.62277 7.29996 5.72989 7.01452 5.9363C6.89449 6.01614 6.79559 6.12406 6.72634 6.25077C6.6571 6.37748 6.61959 6.51918 6.61703 6.66367C6.61877 6.87429 6.68466 7.07933 6.80587 7.25129C6.92707 7.42325 7.09778 7.55389 7.2951 7.62568C8.10864 7.99189 8.95392 8.28249 9.82033 8.49384C10.6139 8.72503 11.3945 8.99917 12.1585 9.31507C12.817 9.60062 13.4439 9.9545 14.029 10.3709C14.6712 10.8214 15.1801 11.4375 15.5021 12.1542C15.844 12.954 16.0114 13.8181 15.9931 14.6883C16.0466 15.5783 15.8879 16.4683 15.53 17.2844C15.1722 18.1005 14.6256 18.8193 13.9355 19.381C12.2817 20.6213 10.2448 21.2361 8.18361 21.1173Z" fill="#333333"/>
<path d="M24.5508 20.9531C23.5569 20.9773 22.5687 20.7961 21.6475 20.4207C20.7264 20.0453 19.8921 19.4837 19.1964 18.7709C18.4978 18.0909 17.9479 17.2725 17.5815 16.3676C17.2152 15.4628 17.0406 14.4913 17.0687 13.5151C17.034 12.531 17.2055 11.5506 17.572 10.6372C17.9385 9.72375 18.4919 8.89766 19.1964 8.21228C19.896 7.50796 20.7322 6.9551 21.6531 6.58785C22.5741 6.2206 23.5603 6.04676 24.5508 6.07708C25.8842 6.04894 27.2006 6.38122 28.362 7.03909C29.4776 7.66143 30.3939 8.58908 31.0042 9.71395L26.6318 12.2715C26.4219 11.9064 26.1179 11.6048 25.7517 11.3984C25.3855 11.1919 24.9707 11.0883 24.5508 11.0983C23.944 11.0883 23.3571 11.3155 22.9141 11.7318C22.693 11.9613 22.5209 12.2337 22.4084 12.5322C22.2958 12.8308 22.2451 13.1493 22.2594 13.4681C22.2451 13.787 22.2958 14.1055 22.4084 14.404C22.5209 14.7026 22.693 14.9749 22.9141 15.2045C23.3496 15.6379 23.9374 15.8823 24.5508 15.8849C24.9769 15.9153 25.4023 15.8177 25.7729 15.6046C26.1435 15.3915 26.4425 15.0725 26.6318 14.6883L31.0042 17.2223C30.3953 18.3543 29.4792 19.2899 28.362 19.9207C27.2036 20.5936 25.8894 20.9496 24.5508 20.9531Z" fill="#333333"/>
<path d="M37.4108 9.19777C37.622 8.32775 38.1361 7.56214 38.8605 7.03911C39.6438 6.49963 40.5761 6.22059 41.526 6.24134V11.7318C40.4964 11.5661 39.4426 11.8011 38.5799 12.3888C38.1517 12.7369 37.8194 13.1891 37.6147 13.7025C37.4101 14.216 37.3399 14.7734 37.4108 15.3218V20.5542H32.1265V6.47598H37.4108V9.19777Z" fill="#333333"/>
<path d="M49.7096 20.9531C47.7298 20.9559 45.8297 20.1712 44.4253 18.771C43.6885 18.1097 43.0994 17.2996 42.6964 16.3938C42.2935 15.488 42.0858 14.507 42.0871 13.5151C42.0792 12.5153 42.2836 11.5252 42.6868 10.6109C43.09 9.69651 43.6826 8.87884 44.4253 8.2123C45.878 6.84131 47.7972 6.078 49.7914 6.078C51.7856 6.078 53.7048 6.84131 55.1575 8.2123C55.8705 8.89356 56.4326 9.71781 56.8072 10.6314C57.1819 11.545 57.3607 12.5276 57.332 13.5151C57.3451 14.5 57.1521 15.4767 56.7655 16.3821C56.3788 17.2874 55.8071 18.1012 55.0874 18.771C54.3801 19.4745 53.5403 20.0298 52.617 20.4044C51.6938 20.7791 50.7054 20.9656 49.7096 20.9531ZM48.0261 15.2983C48.2445 15.5291 48.5075 15.7128 48.7989 15.8383C49.0903 15.9639 49.4041 16.0286 49.7213 16.0286C50.0384 16.0286 50.3522 15.9639 50.6437 15.8383C50.9351 15.7128 51.198 15.5291 51.4164 15.2983C51.6435 15.0634 51.819 14.7833 51.9318 14.4762C52.0445 14.1691 52.092 13.8417 52.0711 13.5151C52.0951 13.1902 52.0513 12.8638 51.9426 12.5568C51.8339 12.2498 51.6627 11.9688 51.4398 11.7319C51.2214 11.5011 50.9585 11.3174 50.667 11.1918C50.3756 11.0663 50.0618 11.0015 49.7447 11.0015C49.4275 11.0015 49.1137 11.0663 48.8223 11.1918C48.5308 11.3174 48.2679 11.5011 48.0495 11.7319C47.8224 11.9668 47.6469 12.2469 47.5342 12.554C47.4214 12.8611 47.3739 13.1885 47.3948 13.5151C47.3709 13.84 47.4147 14.1664 47.5233 14.4734C47.632 14.7804 47.8033 15.0614 48.0261 15.2983Z" fill="#333333"/>
<path d="M58.8986 20.5542V0H64.0893V20.5542H58.8986Z" fill="#333333"/>
<path d="M66.334 20.5542V0H71.5247V20.5542H66.334Z" fill="#333333"/>
<path d="M80.6436 20.9531C79.6515 20.9638 78.6672 20.7764 77.748 20.4017C76.8288 20.0271 75.9929 19.4728 75.2892 18.771C74.572 18.0918 74.0055 17.2685 73.6268 16.3547C73.2481 15.441 73.0656 14.4574 73.0913 13.4682C73.0722 12.4867 73.2579 11.5122 73.6364 10.607C74.0149 9.70185 74.5779 8.88616 75.2892 8.2123C76.7381 6.84289 78.6533 6.08029 80.6436 6.08029C82.6339 6.08029 84.5492 6.84289 85.998 8.2123C86.7152 8.89149 87.2817 9.71481 87.6604 10.6285C88.0391 11.5422 88.2216 12.5258 88.1959 13.5151C88.215 14.4965 88.0293 15.4711 87.6508 16.3763C87.2723 17.2814 86.7093 18.0971 85.998 18.771C85.2951 19.4738 84.4594 20.0289 83.54 20.4036C82.6206 20.7783 81.6359 20.9651 80.6436 20.9531ZM78.9367 15.2983C79.1588 15.5257 79.4246 15.7054 79.718 15.8264C80.0115 15.9474 80.3264 16.0073 80.6436 16.0022C80.9581 16.0127 81.2711 15.9552 81.5615 15.8338C81.852 15.7123 82.113 15.5297 82.3271 15.2983C82.5583 15.0654 82.7382 14.7862 82.855 14.479C82.9718 14.1718 83.023 13.8434 83.0052 13.5151C83.023 13.1868 82.9718 12.8584 82.855 12.5512C82.7382 12.244 82.5583 11.9648 82.3271 11.7319C82.113 11.5004 81.852 11.3178 81.5615 11.1964C81.2711 11.075 80.9581 11.0175 80.6436 11.0279C80.3264 11.0229 80.0115 11.0828 79.718 11.2038C79.4246 11.3248 79.1588 11.5045 78.9367 11.7319C78.7097 11.9668 78.5342 12.2469 78.4214 12.554C78.3087 12.8611 78.2612 13.1885 78.2821 13.5151C78.2612 13.8417 78.3087 14.1691 78.4214 14.4762C78.5342 14.7833 78.7097 15.0634 78.9367 15.2983Z" fill="#333333"/>
<path d="M94.0647 20.038C93.7626 20.3506 93.3983 20.5957 92.9954 20.7575C92.5925 20.9192 92.1601 20.9938 91.7266 20.9765C91.2933 20.9909 90.8618 20.9149 90.4594 20.7534C90.0569 20.5918 89.6922 20.3482 89.3884 20.038C89.0773 19.7321 88.8302 19.3671 88.6615 18.9642C88.4928 18.5613 88.4059 18.1286 88.4059 17.6916C88.4059 17.2546 88.4928 16.822 88.6615 16.4191C88.8302 16.0162 89.0773 15.6511 89.3884 15.3453C89.6922 15.035 90.0569 14.7914 90.4594 14.6299C90.8618 14.4683 91.2933 14.3923 91.7266 14.4067C92.1601 14.3894 92.5925 14.4641 92.9954 14.6258C93.3983 14.7875 93.7626 15.0327 94.0647 15.3453C94.3758 15.6511 94.6229 16.0162 94.7916 16.4191C94.9603 16.822 95.0472 17.2546 95.0472 17.6916C95.0472 18.1286 94.9603 18.5613 94.7916 18.9642C94.6229 19.3671 94.3758 19.7321 94.0647 20.038Z" fill="#36D1DC"/>
</svg>
