<svg width="23" height="22" viewBox="0 0 23 22" fill="none" xmlns="http://www.w3.org/2000/svg">
<path d="M19.6536 22H2.38085C1.7542 21.9993 1.15343 21.75 0.710323 21.3069C0.267215 20.8638 0.0179522 20.263 0.0172119 19.6364L0.0172119 2.36364C0.0179522 1.73699 0.267215 1.13622 0.710323 0.693111C1.15343 0.250003 1.7542 0.000740282 2.38085 0L19.6536 0C20.2802 0.000740282 20.881 0.250003 21.3241 0.693111C21.7672 1.13622 22.0165 1.73699 22.0172 2.36364V19.6364C22.0165 20.263 21.7672 20.8638 21.3241 21.3069C20.881 21.75 20.2802 21.9993 19.6536 22ZM2.38085 1.11888C2.05072 1.11888 1.73411 1.25002 1.50067 1.48346C1.26724 1.7169 1.13609 2.03351 1.13609 2.36364V19.6364C1.13609 19.7998 1.16829 19.9617 1.23084 20.1127C1.2934 20.2637 1.38509 20.401 1.50067 20.5165C1.61626 20.6321 1.75348 20.7238 1.9045 20.7864C2.05552 20.8489 2.21738 20.8811 2.38085 20.8811H19.6536C19.9835 20.8804 20.2997 20.749 20.5329 20.5157C20.7662 20.2824 20.8976 19.9663 20.8983 19.6364V2.36364C20.8983 2.20017 20.8661 2.03831 20.8036 1.88729C20.741 1.73627 20.6493 1.59905 20.5338 1.48346C20.4182 1.36788 20.2809 1.27619 20.1299 1.21363C19.9789 1.15108 19.817 1.11888 19.6536 1.11888H2.38085Z" fill="#4F4F4F"/>
<path d="M21.4577 19.5805C21.3762 19.5806 21.2957 19.5629 21.2218 19.5286C21.1479 19.4942 21.0823 19.4442 21.0298 19.3819L13.3626 10.3022L10.2549 13.9554L5.69829 7.58333L1.03815 14.4365C0.998805 14.5015 0.946609 14.5579 0.884752 14.6021C0.822894 14.6463 0.752674 14.6775 0.678378 14.6936C0.604083 14.7098 0.527272 14.7106 0.452637 14.6961C0.378001 14.6816 0.307108 14.652 0.244287 14.6092C0.181466 14.5664 0.128035 14.5112 0.0872582 14.447C0.0464812 14.3828 0.0192136 14.311 0.00712089 14.2359C-0.00497185 14.1609 -0.00163595 14.0841 0.0169249 14.0104C0.0354857 13.9367 0.0688818 13.8675 0.115074 13.8071L4.90388 6.76374C4.99015 6.63572 5.10628 6.53062 5.24225 6.45752C5.37822 6.38441 5.52994 6.34551 5.6843 6.34416C5.83847 6.34124 5.99101 6.37617 6.12853 6.44591C6.26606 6.51565 6.38438 6.61806 6.47312 6.74416L10.3333 12.14L12.6354 9.43228C12.7255 9.32687 12.8375 9.24228 12.9636 9.18433C13.0896 9.12638 13.2267 9.09646 13.3654 9.09661C13.5045 9.09623 13.6419 9.12634 13.768 9.18482C13.8942 9.2433 14.0059 9.32872 14.0955 9.43507L21.8857 18.6658C21.9331 18.722 21.969 18.787 21.9913 18.8571C22.0136 18.9271 22.0219 19.0009 22.0156 19.0742C22.0094 19.1474 21.9888 19.2187 21.955 19.284C21.9212 19.3493 21.8748 19.4073 21.8186 19.4547C21.7168 19.5377 21.5891 19.5822 21.4577 19.5805Z" fill="#4F4F4F"/>
<path d="M16.1292 7.15547C15.7907 7.15547 15.4597 7.05507 15.1782 6.86696C14.8967 6.67886 14.6772 6.4115 14.5477 6.09869C14.4181 5.78588 14.3842 5.44168 14.4503 5.10961C14.5163 4.77753 14.6793 4.4725 14.9188 4.23309C15.1582 3.99368 15.4632 3.83064 15.7953 3.76458C16.1273 3.69853 16.4716 3.73243 16.7844 3.862C17.0972 3.99157 17.3645 4.21099 17.5526 4.4925C17.7407 4.77402 17.8411 5.105 17.8411 5.44358C17.8411 5.8976 17.6608 6.33302 17.3397 6.65407C17.0187 6.97511 16.5833 7.15547 16.1292 7.15547ZM16.1292 4.85337C16.0118 4.85337 15.8971 4.88822 15.7995 4.95351C15.7019 5.01879 15.6259 5.11157 15.5811 5.22009C15.5363 5.32861 15.5247 5.44799 15.5478 5.5631C15.571 5.67821 15.6277 5.78386 15.7109 5.86669C15.7941 5.94951 15.9001 6.00576 16.0153 6.02833C16.1305 6.05089 16.2498 6.03875 16.3581 5.99344C16.4664 5.94812 16.5589 5.87168 16.6237 5.77379C16.6885 5.67591 16.7228 5.56098 16.7223 5.44358C16.7215 5.28679 16.6587 5.13667 16.5476 5.02607C16.4365 4.91546 16.286 4.85337 16.1292 4.85337Z" fill="#4F4F4F"/>
</svg>
