<svg width="22" height="24" viewBox="0 0 22 24" fill="none" xmlns="http://www.w3.org/2000/svg">
<path d="M10.7414 23.96C10.5837 23.9594 10.4279 23.9262 10.2837 23.8627C10.1394 23.7991 10.0098 23.7065 9.90294 23.5906L7.96809 21.4798H4.22443C3.10452 21.4783 2.03092 21.0327 1.23902 20.2408C0.447122 19.4489 0.00155113 18.3753 0 17.2554L0 4.22443C0.00155113 3.10452 0.447122 2.03092 1.23902 1.23902C2.03092 0.447122 3.10452 0.00155113 4.22443 0L17.2554 0C18.3753 0.00155113 19.4489 0.447122 20.2408 1.23902C21.0327 2.03092 21.4783 3.10452 21.4798 4.22443V17.2554C21.4783 18.3753 21.0327 19.4489 20.2408 20.2408C19.4489 21.0327 18.3753 21.4783 17.2554 21.4798H13.5264L11.5798 23.5935C11.4724 23.7085 11.3426 23.8003 11.1984 23.8633C11.0543 23.9263 10.8987 23.9592 10.7414 23.96ZM4.22443 1.17264C3.41529 1.17342 2.6395 1.49519 2.06735 2.06735C1.49519 2.6395 1.17342 3.41529 1.17264 4.22443V17.2554C1.17342 18.0645 1.49519 18.8403 2.06735 19.4125C2.6395 19.9846 3.41529 20.3064 4.22443 20.3072H8.48112L10.7414 22.7727L13.0134 20.3072H17.2554C18.0645 20.3064 18.8403 19.9846 19.4125 19.4125C19.9846 18.8403 20.3064 18.0645 20.3072 17.2554V4.22443C20.3064 3.41529 19.9846 2.6395 19.4125 2.06735C18.8403 1.49519 18.0645 1.17342 17.2554 1.17264H4.22443Z" fill="#919191"/>
<path d="M14.4177 11.325H7.06227C6.90677 11.325 6.75764 11.2632 6.64768 11.1533C6.53773 11.0433 6.47595 10.8942 6.47595 10.7387C6.47595 10.5832 6.53773 10.434 6.64768 10.3241C6.75764 10.2141 6.90677 10.1523 7.06227 10.1523H14.4177C14.5732 10.1523 14.7223 10.2141 14.8322 10.3241C14.9422 10.434 15.004 10.5832 15.004 10.7387C15.004 10.8942 14.9422 11.0433 14.8322 11.1533C14.7223 11.2632 14.5732 11.325 14.4177 11.325Z" fill="#919191"/>
</svg>
