<svg width="27" height="27" viewBox="0 0 27 27" fill="none" xmlns="http://www.w3.org/2000/svg">
<path d="M1.95 6.075C2.1688 6.075 2.37865 5.98808 2.53336 5.83336C2.68808 5.67865 2.775 5.4688 2.775 5.25V2.775H5.25C5.4688 2.775 5.67865 2.68808 5.83336 2.53336C5.98808 2.37865 6.075 2.1688 6.075 1.95C6.075 1.7312 5.98808 1.52135 5.83336 1.36664C5.67865 1.21192 5.4688 1.125 5.25 1.125H2.775C2.33739 1.125 1.91771 1.29884 1.60827 1.60827C1.29884 1.91771 1.125 2.33739 1.125 2.775V5.25C1.125 5.4688 1.21192 5.67865 1.36664 5.83336C1.52135 5.98808 1.7312 6.075 1.95 6.075Z" fill="#2E313C"/>
<path d="M24.225 1.125H21.75C21.5312 1.125 21.3214 1.21192 21.1666 1.36664C21.0119 1.52135 20.925 1.7312 20.925 1.95C20.925 2.1688 21.0119 2.37865 21.1666 2.53336C21.3214 2.68808 21.5312 2.775 21.75 2.775H24.225V5.25C24.225 5.4688 24.3119 5.67865 24.4666 5.83336C24.6214 5.98808 24.8312 6.075 25.05 6.075C25.2688 6.075 25.4786 5.98808 25.6334 5.83336C25.7881 5.67865 25.875 5.4688 25.875 5.25V2.775C25.875 2.33739 25.7012 1.91771 25.3917 1.60827C25.0823 1.29884 24.6626 1.125 24.225 1.125Z" fill="#2E313C"/>
<path d="M5.25 24.225H2.775V21.75C2.775 21.5312 2.68808 21.3214 2.53336 21.1666C2.37865 21.0119 2.1688 20.925 1.95 20.925C1.7312 20.925 1.52135 21.0119 1.36664 21.1666C1.21192 21.3214 1.125 21.5312 1.125 21.75V24.225C1.125 24.6626 1.29884 25.0823 1.60827 25.3917C1.91771 25.7012 2.33739 25.875 2.775 25.875H5.25C5.4688 25.875 5.67865 25.7881 5.83336 25.6334C5.98808 25.4786 6.075 25.2688 6.075 25.05C6.075 24.8312 5.98808 24.6214 5.83336 24.4666C5.67865 24.3119 5.4688 24.225 5.25 24.225Z" fill="#2E313C"/>
<path d="M25.05 20.925C24.8312 20.925 24.6214 21.0119 24.4666 21.1666C24.3119 21.3214 24.225 21.5312 24.225 21.75V24.225H21.75C21.5312 24.225 21.3214 24.3119 21.1666 24.4666C21.0119 24.6214 20.925 24.8312 20.925 25.05C20.925 25.2688 21.0119 25.4786 21.1666 25.6334C21.3214 25.7881 21.5312 25.875 21.75 25.875H24.225C24.6626 25.875 25.0823 25.7012 25.3917 25.3917C25.7012 25.0823 25.875 24.6626 25.875 24.225V21.75C25.875 21.5312 25.7881 21.3214 25.6334 21.1666C25.4786 21.0119 25.2688 20.925 25.05 20.925Z" fill="#2E313C"/>
<path d="M24.225 11.025H22.575V6.9C22.575 6.24359 22.3142 5.61406 21.8501 5.14991C21.3859 4.68576 20.7564 4.425 20.1 4.425H6.9C6.24359 4.425 5.61406 4.68576 5.14991 5.14991C4.68576 5.61406 4.425 6.24359 4.425 6.9V11.025H2.775C2.33739 11.025 1.91771 11.1988 1.60827 11.5083C1.29884 11.8177 1.125 12.2374 1.125 12.675V14.325C1.125 14.7626 1.29884 15.1823 1.60827 15.4917C1.91771 15.8012 2.33739 15.975 2.775 15.975H4.425V20.1C4.425 20.7564 4.68576 21.3859 5.14991 21.8501C5.61406 22.3142 6.24359 22.575 6.9 22.575H20.1C20.7564 22.575 21.3859 22.3142 21.8501 21.8501C22.3142 21.3859 22.575 20.7564 22.575 20.1V15.975H24.225C24.6626 15.975 25.0823 15.8012 25.3917 15.4917C25.7012 15.1823 25.875 14.7626 25.875 14.325V12.675C25.875 12.2374 25.7012 11.8177 25.3917 11.5083C25.0823 11.1988 24.6626 11.025 24.225 11.025ZM6.075 6.9C6.075 6.6812 6.16192 6.47135 6.31664 6.31664C6.47135 6.16192 6.6812 6.075 6.9 6.075H20.1C20.3188 6.075 20.5286 6.16192 20.6834 6.31664C20.8381 6.47135 20.925 6.6812 20.925 6.9V11.025H6.075V6.9ZM20.925 20.1C20.925 20.3188 20.8381 20.5286 20.6834 20.6834C20.5286 20.8381 20.3188 20.925 20.1 20.925H6.9C6.6812 20.925 6.47135 20.8381 6.31664 20.6834C6.16192 20.5286 6.075 20.3188 6.075 20.1V15.975H20.925V20.1ZM2.775 14.325V12.675H24.225V14.325H2.775Z" fill="#2E313C"/>
</svg>
